<mxfile host="app.diagrams.net" modified="2023-12-06T04:57:38.059Z" agent="Mozilla/5.0 (Windows NT 10.0; Win64; x64) AppleWebKit/537.36 (KHTML, like Gecko) Chrome/119.0.0.0 Safari/537.36" etag="QqWMsvIJhCnhkZP_OPkc" version="22.1.5" type="github">
  <diagram name="Page-1" id="2cc2dc42-3aac-f2a9-1cec-7a8b7cbee084">
    <mxGraphModel dx="2787" dy="1768" grid="1" gridSize="10" guides="1" tooltips="1" connect="1" arrows="1" fold="1" page="1" pageScale="1" pageWidth="1100" pageHeight="850" background="#ffffff" math="0" shadow="0">
      <root>
        <mxCell id="0" />
        <mxCell id="1" parent="0" />
        <mxCell id="7026571954dc6520-1" value="" style="strokeWidth=1;shadow=0;dashed=0;align=right;html=1;shape=mxgraph.mockup.containers.browserWindow;rSize=0;strokeColor=#666666;mainText=,;recursiveResize=0;rounded=0;labelBackgroundColor=none;fontFamily=Verdana;fontSize=12" parent="1" vertex="1">
          <mxGeometry x="-40" y="-110" width="1100" height="860" as="geometry" />
        </mxCell>
        <mxCell id="7026571954dc6520-2" value="Workshops" style="strokeWidth=1;shadow=0;dashed=0;align=center;html=1;shape=mxgraph.mockup.containers.anchor;fontSize=17;fontColor=#666666;align=left;" parent="7026571954dc6520-1" vertex="1">
          <mxGeometry x="60" y="12" width="110" height="28" as="geometry" />
        </mxCell>
        <mxCell id="7026571954dc6520-3" value="https://universe.rollingcodeschool.com/workshops" style="strokeWidth=1;shadow=0;dashed=0;align=center;html=1;shape=mxgraph.mockup.containers.anchor;rSize=0;fontSize=17;fontColor=#666666;align=left;" parent="7026571954dc6520-1" vertex="1">
          <mxGeometry x="130" y="60" width="500" height="30" as="geometry" />
        </mxCell>
        <mxCell id="7026571954dc6520-21" value="" style="verticalLabelPosition=bottom;shadow=0;dashed=0;align=center;html=1;verticalAlign=top;strokeWidth=1;shape=mxgraph.mockup.markup.line;strokeColor=#999999;rounded=0;labelBackgroundColor=none;fillColor=#ffffff;fontFamily=Verdana;fontSize=12;fontColor=#000000;" parent="7026571954dc6520-1" vertex="1">
          <mxGeometry y="750" width="1100" height="20" as="geometry" />
        </mxCell>
        <mxCell id="x9XRZ1Z5xd_GooW0uoig-2" value="" style="verticalLabelPosition=bottom;shadow=0;dashed=0;align=center;html=1;verticalAlign=top;strokeWidth=1;shape=mxgraph.mockup.markup.line;strokeColor=#999999;rounded=0;labelBackgroundColor=none;fillColor=#ffffff;fontFamily=Verdana;fontSize=12;fontColor=#000000;" vertex="1" parent="7026571954dc6520-1">
          <mxGeometry y="150" width="1090" height="20" as="geometry" />
        </mxCell>
        <mxCell id="x9XRZ1Z5xd_GooW0uoig-3" value="Navbar" style="text;html=1;strokeColor=none;fillColor=none;align=center;verticalAlign=middle;whiteSpace=wrap;rounded=0;fontSize=37;" vertex="1" parent="7026571954dc6520-1">
          <mxGeometry x="475" y="110" width="150" height="50" as="geometry" />
        </mxCell>
        <mxCell id="x9XRZ1Z5xd_GooW0uoig-4" value="Footer" style="text;html=1;strokeColor=none;fillColor=none;align=center;verticalAlign=middle;whiteSpace=wrap;rounded=0;fontSize=37;" vertex="1" parent="7026571954dc6520-1">
          <mxGeometry x="465" y="760" width="170" height="100" as="geometry" />
        </mxCell>
        <mxCell id="x9XRZ1Z5xd_GooW0uoig-8" value="" style="group" vertex="1" connectable="0" parent="7026571954dc6520-1">
          <mxGeometry x="50" y="210" width="200" height="235" as="geometry" />
        </mxCell>
        <mxCell id="x9XRZ1Z5xd_GooW0uoig-5" value="" style="rounded=0;whiteSpace=wrap;html=1;" vertex="1" parent="x9XRZ1Z5xd_GooW0uoig-8">
          <mxGeometry width="200" height="235" as="geometry" />
        </mxCell>
        <mxCell id="7026571954dc6520-22" value="" style="verticalLabelPosition=bottom;shadow=0;dashed=0;align=center;html=1;verticalAlign=top;strokeWidth=1;shape=mxgraph.mockup.graphics.simpleIcon;strokeColor=#999999;fillColor=#ffffff;rounded=0;labelBackgroundColor=none;fontFamily=Verdana;fontSize=12;fontColor=#000000;" parent="x9XRZ1Z5xd_GooW0uoig-8" vertex="1">
          <mxGeometry y="35" width="200" height="200" as="geometry" />
        </mxCell>
        <mxCell id="x9XRZ1Z5xd_GooW0uoig-6" value="Workshop title" style="text;html=1;strokeColor=none;fillColor=none;align=center;verticalAlign=middle;whiteSpace=wrap;rounded=0;fontSize=14;" vertex="1" parent="x9XRZ1Z5xd_GooW0uoig-8">
          <mxGeometry x="45" width="110" height="35" as="geometry" />
        </mxCell>
        <mxCell id="x9XRZ1Z5xd_GooW0uoig-13" value="" style="group" vertex="1" connectable="0" parent="7026571954dc6520-1">
          <mxGeometry x="300" y="210" width="200" height="235" as="geometry" />
        </mxCell>
        <mxCell id="x9XRZ1Z5xd_GooW0uoig-14" value="" style="rounded=0;whiteSpace=wrap;html=1;" vertex="1" parent="x9XRZ1Z5xd_GooW0uoig-13">
          <mxGeometry width="200" height="235" as="geometry" />
        </mxCell>
        <mxCell id="x9XRZ1Z5xd_GooW0uoig-15" value="" style="verticalLabelPosition=bottom;shadow=0;dashed=0;align=center;html=1;verticalAlign=top;strokeWidth=1;shape=mxgraph.mockup.graphics.simpleIcon;strokeColor=#999999;fillColor=#ffffff;rounded=0;labelBackgroundColor=none;fontFamily=Verdana;fontSize=12;fontColor=#000000;" vertex="1" parent="x9XRZ1Z5xd_GooW0uoig-13">
          <mxGeometry y="35" width="200" height="200" as="geometry" />
        </mxCell>
        <mxCell id="x9XRZ1Z5xd_GooW0uoig-16" value="Workshop title" style="text;html=1;strokeColor=none;fillColor=none;align=center;verticalAlign=middle;whiteSpace=wrap;rounded=0;fontSize=14;" vertex="1" parent="x9XRZ1Z5xd_GooW0uoig-13">
          <mxGeometry x="45" width="110" height="35" as="geometry" />
        </mxCell>
        <mxCell id="x9XRZ1Z5xd_GooW0uoig-17" value="" style="group" vertex="1" connectable="0" parent="7026571954dc6520-1">
          <mxGeometry x="550" y="210" width="200" height="235" as="geometry" />
        </mxCell>
        <mxCell id="x9XRZ1Z5xd_GooW0uoig-18" value="" style="rounded=0;whiteSpace=wrap;html=1;" vertex="1" parent="x9XRZ1Z5xd_GooW0uoig-17">
          <mxGeometry width="200" height="235" as="geometry" />
        </mxCell>
        <mxCell id="x9XRZ1Z5xd_GooW0uoig-19" value="" style="verticalLabelPosition=bottom;shadow=0;dashed=0;align=center;html=1;verticalAlign=top;strokeWidth=1;shape=mxgraph.mockup.graphics.simpleIcon;strokeColor=#999999;fillColor=#ffffff;rounded=0;labelBackgroundColor=none;fontFamily=Verdana;fontSize=12;fontColor=#000000;" vertex="1" parent="x9XRZ1Z5xd_GooW0uoig-17">
          <mxGeometry y="35" width="200" height="200" as="geometry" />
        </mxCell>
        <mxCell id="x9XRZ1Z5xd_GooW0uoig-20" value="Workshop title" style="text;html=1;strokeColor=none;fillColor=none;align=center;verticalAlign=middle;whiteSpace=wrap;rounded=0;fontSize=14;" vertex="1" parent="x9XRZ1Z5xd_GooW0uoig-17">
          <mxGeometry x="45" width="110" height="35" as="geometry" />
        </mxCell>
        <mxCell id="x9XRZ1Z5xd_GooW0uoig-21" value="" style="group" vertex="1" connectable="0" parent="7026571954dc6520-1">
          <mxGeometry x="810" y="210" width="200" height="235" as="geometry" />
        </mxCell>
        <mxCell id="x9XRZ1Z5xd_GooW0uoig-22" value="" style="rounded=0;whiteSpace=wrap;html=1;" vertex="1" parent="x9XRZ1Z5xd_GooW0uoig-21">
          <mxGeometry width="200" height="235" as="geometry" />
        </mxCell>
        <mxCell id="x9XRZ1Z5xd_GooW0uoig-23" value="" style="verticalLabelPosition=bottom;shadow=0;dashed=0;align=center;html=1;verticalAlign=top;strokeWidth=1;shape=mxgraph.mockup.graphics.simpleIcon;strokeColor=#999999;fillColor=#ffffff;rounded=0;labelBackgroundColor=none;fontFamily=Verdana;fontSize=12;fontColor=#000000;" vertex="1" parent="x9XRZ1Z5xd_GooW0uoig-21">
          <mxGeometry y="35" width="200" height="200" as="geometry" />
        </mxCell>
        <mxCell id="x9XRZ1Z5xd_GooW0uoig-24" value="Workshop title" style="text;html=1;strokeColor=none;fillColor=none;align=center;verticalAlign=middle;whiteSpace=wrap;rounded=0;fontSize=14;" vertex="1" parent="x9XRZ1Z5xd_GooW0uoig-21">
          <mxGeometry x="45" width="110" height="35" as="geometry" />
        </mxCell>
        <mxCell id="x9XRZ1Z5xd_GooW0uoig-33" value="" style="group" vertex="1" connectable="0" parent="7026571954dc6520-1">
          <mxGeometry x="560" y="480" width="200" height="235" as="geometry" />
        </mxCell>
        <mxCell id="x9XRZ1Z5xd_GooW0uoig-34" value="" style="rounded=0;whiteSpace=wrap;html=1;" vertex="1" parent="x9XRZ1Z5xd_GooW0uoig-33">
          <mxGeometry width="200" height="235" as="geometry" />
        </mxCell>
        <mxCell id="x9XRZ1Z5xd_GooW0uoig-35" value="" style="verticalLabelPosition=bottom;shadow=0;dashed=0;align=center;html=1;verticalAlign=top;strokeWidth=1;shape=mxgraph.mockup.graphics.simpleIcon;strokeColor=#999999;fillColor=#ffffff;rounded=0;labelBackgroundColor=none;fontFamily=Verdana;fontSize=12;fontColor=#000000;" vertex="1" parent="x9XRZ1Z5xd_GooW0uoig-33">
          <mxGeometry y="35" width="200" height="200" as="geometry" />
        </mxCell>
        <mxCell id="x9XRZ1Z5xd_GooW0uoig-36" value="Workshop title" style="text;html=1;strokeColor=none;fillColor=none;align=center;verticalAlign=middle;whiteSpace=wrap;rounded=0;fontSize=14;" vertex="1" parent="x9XRZ1Z5xd_GooW0uoig-33">
          <mxGeometry x="45" width="110" height="35" as="geometry" />
        </mxCell>
        <mxCell id="x9XRZ1Z5xd_GooW0uoig-37" value="" style="group" vertex="1" connectable="0" parent="7026571954dc6520-1">
          <mxGeometry x="810" y="480" width="200" height="235" as="geometry" />
        </mxCell>
        <mxCell id="x9XRZ1Z5xd_GooW0uoig-38" value="" style="rounded=0;whiteSpace=wrap;html=1;" vertex="1" parent="x9XRZ1Z5xd_GooW0uoig-37">
          <mxGeometry width="200" height="235" as="geometry" />
        </mxCell>
        <mxCell id="x9XRZ1Z5xd_GooW0uoig-39" value="" style="verticalLabelPosition=bottom;shadow=0;dashed=0;align=center;html=1;verticalAlign=top;strokeWidth=1;shape=mxgraph.mockup.graphics.simpleIcon;strokeColor=#999999;fillColor=#ffffff;rounded=0;labelBackgroundColor=none;fontFamily=Verdana;fontSize=12;fontColor=#000000;" vertex="1" parent="x9XRZ1Z5xd_GooW0uoig-37">
          <mxGeometry y="35" width="200" height="200" as="geometry" />
        </mxCell>
        <mxCell id="x9XRZ1Z5xd_GooW0uoig-40" value="Workshop title" style="text;html=1;strokeColor=none;fillColor=none;align=center;verticalAlign=middle;whiteSpace=wrap;rounded=0;fontSize=14;" vertex="1" parent="x9XRZ1Z5xd_GooW0uoig-37">
          <mxGeometry x="45" width="110" height="35" as="geometry" />
        </mxCell>
        <mxCell id="x9XRZ1Z5xd_GooW0uoig-25" value="" style="group" vertex="1" connectable="0" parent="1">
          <mxGeometry x="10" y="370" width="200" height="235" as="geometry" />
        </mxCell>
        <mxCell id="x9XRZ1Z5xd_GooW0uoig-26" value="" style="rounded=0;whiteSpace=wrap;html=1;" vertex="1" parent="x9XRZ1Z5xd_GooW0uoig-25">
          <mxGeometry width="200" height="235" as="geometry" />
        </mxCell>
        <mxCell id="x9XRZ1Z5xd_GooW0uoig-27" value="" style="verticalLabelPosition=bottom;shadow=0;dashed=0;align=center;html=1;verticalAlign=top;strokeWidth=1;shape=mxgraph.mockup.graphics.simpleIcon;strokeColor=#999999;fillColor=#ffffff;rounded=0;labelBackgroundColor=none;fontFamily=Verdana;fontSize=12;fontColor=#000000;" vertex="1" parent="x9XRZ1Z5xd_GooW0uoig-25">
          <mxGeometry y="35" width="200" height="200" as="geometry" />
        </mxCell>
        <mxCell id="x9XRZ1Z5xd_GooW0uoig-28" value="Workshop title" style="text;html=1;strokeColor=none;fillColor=none;align=center;verticalAlign=middle;whiteSpace=wrap;rounded=0;fontSize=14;" vertex="1" parent="x9XRZ1Z5xd_GooW0uoig-25">
          <mxGeometry x="45" width="110" height="35" as="geometry" />
        </mxCell>
        <mxCell id="x9XRZ1Z5xd_GooW0uoig-29" value="" style="group" vertex="1" connectable="0" parent="1">
          <mxGeometry x="260" y="370" width="200" height="235" as="geometry" />
        </mxCell>
        <mxCell id="x9XRZ1Z5xd_GooW0uoig-30" value="" style="rounded=0;whiteSpace=wrap;html=1;" vertex="1" parent="x9XRZ1Z5xd_GooW0uoig-29">
          <mxGeometry width="200" height="235" as="geometry" />
        </mxCell>
        <mxCell id="x9XRZ1Z5xd_GooW0uoig-31" value="" style="verticalLabelPosition=bottom;shadow=0;dashed=0;align=center;html=1;verticalAlign=top;strokeWidth=1;shape=mxgraph.mockup.graphics.simpleIcon;strokeColor=#999999;fillColor=#ffffff;rounded=0;labelBackgroundColor=none;fontFamily=Verdana;fontSize=12;fontColor=#000000;" vertex="1" parent="x9XRZ1Z5xd_GooW0uoig-29">
          <mxGeometry y="35" width="200" height="200" as="geometry" />
        </mxCell>
        <mxCell id="x9XRZ1Z5xd_GooW0uoig-32" value="Workshop title" style="text;html=1;strokeColor=none;fillColor=none;align=center;verticalAlign=middle;whiteSpace=wrap;rounded=0;fontSize=14;" vertex="1" parent="x9XRZ1Z5xd_GooW0uoig-29">
          <mxGeometry x="45" width="110" height="35" as="geometry" />
        </mxCell>
      </root>
    </mxGraphModel>
  </diagram>
</mxfile>
